<?xml version="1.0" encoding="utf-8"?>
<!-- Generator: Adobe Illustrator 23.0.1, SVG Export Plug-In . SVG Version: 6.00 Build 0)  -->
<svg version="1.1" id="Calque_1" xmlns="http://www.w3.org/2000/svg" xmlns:xlink="http://www.w3.org/1999/xlink" x="0px" y="0px"
	 viewBox="0 0 2500 1005" style="enable-background:new 0 0 2500 1005;" xml:space="preserve">
<style type="text/css">
	.st0{fill:#BFBFBF;}
</style>
<path class="st0" d="M193.4,211.9c-11.5-8.2-24.1-12.1-45.5-13.1c-9.9-0.5-15.3-0.5-23.5-0.5c-2.2,0-3.3,1.1-3.3,3.8v129.8
	c0,36.1,1.6,45.5,19.2,52.6c14.8,6,27.4,6.6,40,6.6c24.6,0,66.3-13.1,66.3-70.1C246.5,287,235,241,193.4,211.9z M121.1,168.1
	c0,4.4,1.6,5.5,3.8,6c4.9,1.1,13.1,1.6,25.7,1.6c18.1,0,30.1-2.2,39.4-10.4c14.2-11.5,22.5-31.2,22.5-58c0-36.7-21.4-84.9-68.5-84.9
	c-7.7,0-12.6,0-18.1,1.1c-3.8,1.1-4.9,3.3-4.9,9.3L121.1,168.1L121.1,168.1z M55.4,158.8c0-83.2,0-98.6-1.1-116.1
	c-1.1-18.6-5.5-27.4-23.5-31.2c-4.4-1.1-13.7-1.6-21.4-1.6c-6,0-9.3-1.1-9.3-4.9S3.9,0,12.1,0c29,0,63.5,1.6,74.5,1.6
	c26.8,0,48.2-1.6,66.8-1.6c99.1,0,116.6,53.1,116.6,82.1c0,44.9-25.7,71.7-55.9,95.8c44.9,15.3,99.7,54.2,99.7,118.3
	c0,58.6-45.5,119.4-146.2,119.4c-6.6,0-22.5-1.1-38.3-1.6c-16.4-1.1-32.9-1.6-41.1-1.6c-6,0-18.1,0-31.2,0.5
	c-12.6,0-26.8,1.1-37.8,1.1c-7.1,0-11-1.6-11-5.5c0-2.7,2.2-4.4,8.8-4.4c8.2,0,14.8-1.1,19.7-2.2c11-2.2,13.7-14.2,15.9-30.1
	c2.7-23,2.7-66.3,2.7-116.6L55.4,158.8 M387.8,196.6c0-70.6,0.5-83.8-0.5-98.6c-1.1-16.4-5.5-20.8-20.8-25.2
	c-3.8-1.1-12-1.6-18.6-1.6c-5.5,0-8.2-1.6-8.2-4.9c0-3.3,3.3-4.4,10.4-4.4c25.7,0,58,1.1,72.3,1.1c12.1,0,44.4-1.1,61.9-1.1
	c7.1,0,10.4,1.1,10.4,4.4c0,3.3-2.7,4.9-7.7,4.9c-5.5,0-8.2,0.5-14.2,1.6c-12.6,2.2-16.4,8.8-17.5,25.2c-1.1,14.8-1.1,27.9-1.1,98.6
	v65.2c0,67.9,13.1,94.2,36.7,112.8c21.4,17,44.4,18.6,60.8,18.6c20.8,0,45.5-6,64.6-24.6c26.8-25.2,27.9-65.7,27.9-113.4v-58.6
	c0-70.6-0.5-83.8-1.1-98.6c-1.1-15.9-4.9-20.8-20.3-25.2c-3.8-1.1-12-1.6-17.5-1.6c-5.5,0-8.2-1.6-8.2-4.9c0-3.3,3.3-4.4,9.9-4.4
	c24.6,0,57,1.1,57.5,1.1c5.5,0,37.8-1.1,56.4-1.1c6.6,0,9.9,1.1,9.9,4.4c0,3.3-2.7,4.9-8.2,4.9s-8.2,0.5-14.2,1.6
	C695,75,691.7,81.6,690.6,98c-0.5,14.8-1.1,27.9-1.1,98.6v49.8c0,52-5.5,106.8-46,140.2c-34,28.5-70.6,33.4-101.9,33.4
	c-25.2,0-75-1.1-110.1-31.8c-24.6-21.4-43.8-55.9-43.8-123.2L387.8,196.6 M775.5,408c-7.7-3.3-9.3-5.5-9.3-15.9
	c0-25.2,2.2-54.2,2.7-61.9c0-7.1,2.2-12.1,6-12.1c4.4,0,4.9,4.4,4.9,7.7c0,6,1.6,15.9,4.4,24.1c10.4,34.5,46.5,46,76.7,46
	c41.6,0,66.8-26.3,66.8-59.1c0-20.3-4.9-40.5-47.6-65.7l-27.9-16.4c-57-33.4-75.6-64.6-75.6-105.7c0-57,54.8-93.6,121.6-93.6
	c31.2,0,55.9,4.4,68.5,7.7c4.4,1.1,6.6,2.7,6.6,6c0,6-1.6,19.2-1.6,55.9c0,9.9-2.2,14.8-6,14.8c-3.3,0-4.9-2.7-4.9-8.2
	c0-4.4-2.2-18.6-12.6-30.7c-7.1-8.8-22.4-21.9-53.7-21.9c-34.5,0-65.7,18.1-65.7,49.8c0,20.8,7.7,37.2,50.9,61.3l19.7,10.9
	c63.5,35.1,83.2,70.6,83.2,112.8c0,34.5-13.1,62.4-48.2,87.1c-23,16.4-54.8,19.2-80.5,19.2C825.9,420,796.3,417.3,775.5,408
	 M1063.5,196.6c0-70.6,0-83.8-0.5-98.6c-1.1-15.9-6-21.4-16.4-24.6c-5.5-1.6-11.5-2.2-17.5-2.2c-4.9,0-7.7-1.1-7.7-5.5
	c0-2.7,3.8-3.8,11.5-3.8c18.1,0,50.9,1.1,64.6,1.1c12.1,0,43.3-1.1,61.9-1.1c6,0,9.9,1.1,9.9,3.8c0,4.4-2.7,5.5-7.7,5.5
	c-4.9,0-8.8,0.5-14.2,1.6c-13.1,2.2-17,8.8-18.1,25.2c-1.1,14.8-1.1,27.9-1.1,98.6v82.1c0,44.9,0,82.1,2.2,101.9
	c1.6,12.6,4.9,19.7,19.2,21.9c6.6,1.1,17.5,1.6,24.6,1.6c5.5,0,7.7,2.7,7.7,4.9c0,3.3-3.8,4.9-9.3,4.9c-31.8,0-64.6-1.6-77.8-1.6
	c-11,0-43.8,1.6-63,1.6c-6,0-9.3-1.6-9.3-4.9c0-2.2,1.6-4.9,7.7-4.9c7.1,0,12.6-0.5,17-1.6c9.9-2.2,12.6-8.8,14.2-22.4
	c2.2-19.2,2.2-56.4,2.2-101.3L1063.5,196.6 M1293.5,350.5c1.1,36.1,7.1,47.1,16.4,50.4c8.2,2.7,17.5,3.3,25.2,3.3
	c5.5,0,8.2,2.2,8.2,4.9c0,3.8-4.4,4.9-11,4.9c-31.2,0-53.7-1.6-62.4-1.6c-4.4,0-27.4,1.6-52,1.6c-6.6,0-11-0.5-11-4.9
	c0-2.7,3.3-4.9,7.7-4.9c6.6,0,15.3-0.5,21.9-2.2c12.6-3.3,14.2-15.9,14.8-56.4l4.4-276c0-9.3,3.3-15.9,8.2-15.9
	c6,0,12.6,7.1,20.8,15.3c6,6,78.3,80,148.4,148.4c32.9,32.3,96.9,98,104.1,104.6h2.2l-4.9-207c-0.5-28.5-4.9-36.7-16.4-41.1
	c-7.1-2.7-18.6-2.7-25.2-2.7c-6,0-7.7-2.2-7.7-4.9c0-3.8,4.9-4.4,12-4.4c25.2,0,50.9,1.1,61.3,1.1c5.5,0,23.5-1.1,47.1-1.1
	c6.6,0,10.9,0.5,10.9,4.4c0,2.7-2.7,4.9-8.2,4.9c-4.9,0-8.8,0-14.8,1.6c-13.1,3.8-17,12-17.5,38.3l-5.5,293.5
	c0,10.4-3.8,14.8-7.7,14.8c-8.2,0-14.8-4.9-19.7-9.9c-30.1-27.9-90.4-85.4-140.7-134.2c-52.6-50.4-103.5-106.8-112.8-115h-1.6
	L1293.5,350.5 M1700.9,196.6c0-70.6,0-83.8-0.6-98.6c-1.1-15.9-5.5-20.8-20.8-25.2c-3.8-1.1-12-1.6-19.2-1.6c-4.9,0-8.2-1.6-8.2-4.9
	c0-3.3,3.8-4.4,11-4.4c25.2,0,55.9,1.1,69.5,1.1c15.3,0,122.1,0.5,131.4,0c8.8-0.5,16.4-2.2,20.3-2.7c2.7-0.5,5.5-2.2,7.7-2.2
	c2.7,0,3.3,2.2,3.3,4.4c0,3.3-2.7,8.8-3.8,30.1c-0.5,4.9-1.6,25.2-2.7,30.7c-0.5,2.2-1.6,7.7-5.5,7.7c-3.3,0-3.8-2.2-3.8-6
	c0-3.3-0.5-11.5-3.3-17c-3.8-8.2-7.7-14.8-31.8-17c-8.2-1.1-65.7-2.2-75.6-2.2c-2.2,0-3.3,1.6-3.3,4.4v115c0,2.7,0.5,4.9,3.3,4.9
	c11,0,73.4,0,84.3-1.1c11.5-1.1,18.6-2.2,23-7.1c3.8-3.3,5.5-6,7.7-6c2.2,0,3.8,2.2,3.8,4.9c0,2.7-1.1,10.4-3.8,34
	c-1.1,9.3-2.2,27.9-2.2,31.2c0,3.8-0.5,10.4-4.9,10.4c-3.3,0-4.4-1.6-4.4-3.8c-0.5-4.9-0.5-11-1.6-17c-2.7-9.3-8.8-16.4-26.8-18.1
	c-8.8-1.1-63.5-2.2-75.6-2.2c-2.2,0-2.7,2.2-2.7,4.9v37.2c0,15.9-0.5,55.3,0,69c1.1,31.8,15.9,38.9,65.2,38.9
	c12.6,0,32.9-0.5,45.5-6c12-5.5,17.5-15.3,20.8-34.5c1.1-4.9,2.2-7.1,5.5-7.1c3.8,0,4.4,6,4.4,10.9c0,10.4-3.8,42.2-6.6,51.5
	c-3.3,12-7.7,12-25.7,12c-36.1,0-65.2-0.5-88.7-1.6c-23.5-0.5-41.6-1.1-55.9-1.1c-5.5,0-15.9,0.5-27.4,0.5
	c-11.5,0.5-23.5,1.1-33.4,1.1c-6,0-9.3-1.6-9.3-4.9c0-2.2,1.6-4.9,7.7-4.9c7.1,0,12.6-0.5,17-1.6c9.9-2.2,12.6-10.9,14.2-24.6
	c2.2-19.7,2.2-56.4,2.2-99.1L1700.9,196.6 M1967.1,408c-7.7-3.3-9.3-5.5-9.3-15.9c0-25.2,2.2-54.2,2.7-61.9c0-7.1,2.2-12.1,6-12.1
	c4.4,0,4.9,4.4,4.9,7.7c0,6,1.6,15.9,4.4,24.1c10.4,34.5,46.5,46,76.7,46c41.6,0,66.8-26.3,66.8-59.1c0-20.3-4.9-40.5-47.6-65.7
	l-27.9-16.4c-57-33.4-75.6-64.6-75.6-105.7c0-57,54.8-93.6,121.6-93.6c31.2,0,55.9,4.4,68.5,7.7c4.4,1.1,6.6,2.7,6.6,6
	c0,6-1.6,19.2-1.6,55.9c0,9.9-2.2,14.8-6,14.8c-3.3,0-4.9-2.7-4.9-8.2c0-4.4-2.2-18.6-12.6-30.7c-7.1-8.8-22.5-21.9-53.7-21.9
	c-34.5,0-65.7,18.1-65.7,49.8c0,20.8,7.7,37.2,50.9,61.3l19.7,10.9c63.5,35.1,83.2,70.6,83.2,112.8c0,34.5-13.1,62.4-48.2,87.1
	c-23,16.4-54.8,19.2-80.5,19.2C2017.4,420,1987.9,417.3,1967.1,408 M2239.8,408c-7.7-3.3-9.3-5.5-9.3-15.9c0-25.2,2.2-54.2,2.7-61.9
	c0-7.1,2.2-12.1,6-12.1c4.4,0,4.9,4.4,4.9,7.7c0,6,1.6,15.9,4.4,24.1c10.4,34.5,46.5,46,76.7,46c41.6,0,66.8-26.3,66.8-59.1
	c0-20.3-4.9-40.5-47.6-65.7l-27.9-16.4c-57-33.4-75.6-64.6-75.6-105.7c0-57,54.8-93.6,121.6-93.6c31.2,0,55.9,4.4,68.5,7.7
	c4.4,1.1,6.6,2.7,6.6,6c0,6-1.6,19.2-1.6,55.9c0,9.9-2.2,14.8-6,14.8c-3.3,0-4.9-2.7-4.9-8.2c0-4.4-2.2-18.6-12.6-30.7
	c-7.1-8.8-22.4-21.9-53.7-21.9c-34.5,0-65.7,18.1-65.7,49.8c0,20.8,7.7,37.2,50.9,61.3l19.7,10.9c63.5,35.1,83.2,70.6,83.2,112.8
	c0,34.5-13.1,62.4-48.2,87.1c-23,16.4-54.8,19.2-80.5,19.2C2290.2,420,2260.6,417.3,2239.8,408 M77.8,743.8c0-83.2,0-98.6-1.1-116.1
	c-1.1-18.6-6.6-27.9-18.6-30.7c-6-1.6-13.1-2.2-19.7-2.2c-5.5,0-8.8-1.1-8.8-5.5c0-3.3,4.4-4.4,13.1-4.4c20.8,0,55.3,1.6,71.2,1.6
	c13.7,0,46-1.6,66.8-1.6c7.1,0,11.5,1.1,11.5,4.4c0,4.4-3.3,5.5-8.8,5.5c-5.5,0-9.9,0.5-16.4,1.7c-14.8,2.7-19.2,12-20.3,31.2
	c-1.1,17.5-1.1,32.9-1.1,116.1v96.4c0,53.1,0,96.4,2.2,119.9c1.6,14.8,5.5,24.6,21.9,26.8c7.7,1.1,19.7,2.2,27.9,2.2
	c6,0,8.8,1.6,8.8,4.4c0,3.8-4.4,5.5-10.4,5.5c-36.1,0-70.6-1.6-85.4-1.6c-12.6,0-47.1,1.6-69,1.6c-7.1,0-11-1.6-11-5.5
	c0-2.7,2.2-4.4,8.8-4.4c8.2,0,14.8-1.1,19.7-2.2c10.9-2.2,14.2-11.5,15.9-27.4c2.7-23,2.7-66.3,2.7-119.4L77.8,743.8 M356.6,935.5
	c1.1,36.1,7.1,47.1,16.4,50.4c8.2,2.7,17.5,3.3,25.2,3.3c5.5,0,8.2,2.2,8.2,4.9c0,3.8-4.4,4.9-11,4.9c-31.2,0-53.7-1.6-62.4-1.6
	c-4.4,0-27.4,1.6-52,1.6c-6.6,0-11-0.5-11-4.9c0-2.7,3.3-4.9,7.7-4.9c6.6,0,15.3-0.5,21.9-2.2c12.6-3.3,14.2-15.9,14.8-56.4l4.4-276
	c0-9.3,3.3-15.9,8.2-15.9c6,0,12.6,7.1,20.8,15.3c6,6,78.3,80,148.4,148.4c32.9,32.3,96.9,98,104,104.6h2.2l-4.9-207
	c-0.5-28.5-4.9-36.7-16.4-41.1c-7.1-2.7-18.6-2.7-25.2-2.7c-6,0-7.7-2.2-7.7-4.9c0-3.8,4.9-4.4,12-4.4c25.2,0,50.9,1.1,61.3,1.1
	c5.5,0,23.5-1.1,47.1-1.1c6.6,0,10.9,0.5,10.9,4.4c0,2.7-2.7,4.9-8.2,4.9c-4.9,0-8.8,0-14.8,1.6c-13.1,3.8-17,12.1-17.5,38.3
	l-5.5,293.5c0,10.4-3.8,14.8-7.7,14.8c-8.2,0-14.8-4.9-19.7-9.9c-30.1-27.9-90.4-85.4-140.7-134.2c-52.6-50.4-103.5-106.8-112.8-115
	h-1.6L356.6,935.5 M783.7,993c-7.7-3.3-9.3-5.5-9.3-15.9c0-25.2,2.2-54.2,2.7-61.9c0-7.1,2.2-12,6-12c4.4,0,4.9,4.4,4.9,7.7
	c0,6,1.6,15.9,4.4,24.1c10.4,34.5,46.5,46,76.7,46c41.6,0,66.8-26.3,66.8-59.1c0-20.3-4.9-40.5-47.6-65.7l-27.9-16.4
	c-57-33.4-75.6-64.6-75.6-105.7c0-57,54.8-93.6,121.6-93.6c31.2,0,55.9,4.4,68.5,7.7c4.4,1.1,6.6,2.7,6.6,6c0,6-1.6,19.2-1.6,55.9
	c0,9.9-2.2,14.8-6,14.8c-3.3,0-4.9-2.7-4.9-8.2c0-4.4-2.2-18.6-12.6-30.7c-7.1-8.8-22.5-21.9-53.7-21.9c-34.5,0-65.7,18.1-65.7,49.8
	c0,20.8,7.7,37.2,50.9,61.3l19.7,11c63.5,35,83.2,70.6,83.2,112.8c0,34.5-13.1,62.4-48.2,87.1c-23,16.4-54.8,19.2-80.5,19.2
	C834.1,1005,804.5,1002.3,783.7,993 M1117.7,781.6c0-70.6,0-83.8-0.5-98.6c-1.1-15.9-6-21.4-16.4-24.6c-5.5-1.6-11.5-2.2-17.5-2.2
	c-4.9,0-7.7-1.1-7.7-5.5c0-2.7,3.8-3.8,11.5-3.8c18.1,0,50.9,1.1,64.6,1.1c12.1,0,43.3-1.1,61.9-1.1c6,0,9.9,1.1,9.9,3.8
	c0,4.4-2.7,5.5-7.7,5.5c-4.9,0-8.8,0.5-14.2,1.6c-13.1,2.2-17,8.8-18.1,25.2c-1.1,14.8-1.1,27.9-1.1,98.6v82.1
	c0,44.9,0,82.1,2.2,101.9c1.6,12.6,4.9,19.7,19.2,21.9c6.6,1.1,17.5,1.6,24.6,1.6c5.5,0,7.7,2.7,7.7,4.9c0,3.3-3.8,4.9-9.3,4.9
	c-31.8,0-64.6-1.6-77.8-1.6c-11,0-43.8,1.6-63,1.6c-6,0-9.3-1.6-9.3-4.9c0-2.2,1.6-4.9,7.7-4.9c7.1,0,12.6-0.5,17-1.6
	c9.9-2.2,12.6-8.8,14.2-22.4c2.2-19.2,2.2-56.4,2.2-101.3L1117.7,781.6 M1428.2,833c0,49.3,0.5,84.9,1.1,94.2
	c0.5,11.5,1.6,27.9,5.5,32.9c6,8.8,25.2,18.6,63,18.6c43.8,0,76.1-7.7,105.1-31.8c31.2-25.7,41.1-67.4,41.1-115.5
	c0-59.1-23.5-97.5-44.9-116.1c-44.4-39.4-96.9-44.4-134.7-44.4c-9.9,0-25.7,1.1-29.6,3.3c-4.4,1.6-6,3.8-6,9.3
	c-0.5,15.9-0.5,54.2-0.5,90.9L1428.2,833L1428.2,833z M1363.6,781.6c0-70.6,0-83.8-0.6-98.6c-1.1-15.9-5.5-20.8-20.8-25.2
	c-3.8-1.1-12.1-1.6-19.2-1.6c-4.9,0-8.2-1.6-8.2-4.9c0-3.3,3.8-4.4,11-4.4c25.2,0,55.9,1.1,69.6,1.1c14.8,0,49.3-1.1,78.3-1.1
	c60.2,0,141.3,0,193.9,53.1c24.1,24.1,45.5,63,45.5,118.3c0,58.6-25.2,103-52.6,129.8c-21.9,21.9-72.8,54.8-161.6,54.8
	c-17.5,0-38.3-1.6-57.5-2.7c-19.2-1.6-36.7-2.7-48.7-2.7c-5.5,0-15.9,0.5-27.4,0.5c-11.5,0.5-23.6,1.1-33.4,1.1
	c-6,0-9.3-1.6-9.3-4.9c0-2.2,1.6-4.9,7.7-4.9c7.1,0,12.6-0.5,17-1.6c9.9-2.2,12.6-10.9,14.2-24.6c2.2-19.7,2.2-56.4,2.2-99.1
	L1363.6,781.6 M1836.2,781.6c0-70.6,0-83.8-0.5-98.6c-1.1-15.9-5.5-20.8-20.8-25.2c-3.8-1.1-12-1.6-19.2-1.6c-4.9,0-8.2-1.6-8.2-4.9
	c0-3.3,3.8-4.4,11-4.4c25.2,0,55.9,1.1,69.6,1.1c15.3,0,122.1,0.5,131.4,0c8.8-0.5,16.4-2.2,20.3-2.7c2.7-0.6,5.5-2.2,7.7-2.2
	c2.7,0,3.3,2.2,3.3,4.4c0,3.3-2.7,8.8-3.8,30.1c-0.5,4.9-1.6,25.2-2.7,30.7c-0.5,2.2-1.6,7.7-5.5,7.7c-3.3,0-3.8-2.2-3.8-6
	c0-3.3-0.5-11.5-3.3-17c-3.8-8.2-7.7-14.8-31.8-17c-8.2-1.1-65.7-2.2-75.6-2.2c-2.2,0-3.3,1.6-3.3,4.4v115c0,2.7,0.5,4.9,3.3,4.9
	c11,0,73.4,0,84.3-1.1c11.5-1.1,18.6-2.2,23-7.1c3.8-3.3,5.5-6,7.7-6c2.2,0,3.8,2.2,3.8,4.9c0,2.7-1.1,10.4-3.8,34
	c-1.1,9.3-2.2,27.9-2.2,31.2c0,3.8-0.5,10.4-4.9,10.4c-3.3,0-4.4-1.6-4.4-3.8c-0.5-4.9-0.5-10.9-1.6-17c-2.7-9.3-8.8-16.4-26.8-18.1
	c-8.8-1.1-63.5-2.2-75.6-2.2c-2.2,0-2.7,2.2-2.7,4.9v37.2c0,15.9-0.5,55.3,0,69c1.1,31.8,15.9,38.9,65.2,38.9
	c12.6,0,32.9-0.5,45.5-6c12-5.5,17.5-15.3,20.8-34.5c1.1-4.9,2.2-7.1,5.5-7.1c3.8,0,4.4,6,4.4,11c0,10.4-3.8,42.2-6.6,51.5
	c-3.3,12-7.7,12-25.7,12c-36.1,0-65.2-0.5-88.7-1.6c-23.5-0.5-41.6-1.1-55.9-1.1c-5.5,0-15.9,0.5-27.4,0.5
	c-11.5,0.5-23.5,1.1-33.4,1.1c-6,0-9.3-1.6-9.3-4.9c0-2.2,1.6-4.9,7.7-4.9c7.1,0,12.6-0.5,17-1.6c9.9-2.2,12.6-10.9,14.2-24.6
	c2.2-19.7,2.2-56.4,2.2-99.1L1836.2,781.6 M2225,817.7c0,4.9,1.1,6.6,4.4,8.2c10.4,3.3,24.6,4.4,36.7,4.4c19.2,0,25.7-1.6,33.9-7.7
	c14.8-10.4,31.2-30.7,31.2-69c0-65.7-44.9-82.7-73.4-82.7c-12,0-23.5,0.5-28.5,1.6c-3.3,1.1-4.4,2.7-4.4,6.6V817.7L2225,817.7z
	 M2163.7,781.6c0-70.6,0-83.8-0.5-98.6c-1.1-15.9-5.5-20.8-20.8-25.2c-3.8-1.1-12-1.6-19.2-1.6c-4.9,0-8.2-1.6-8.2-4.9
	c0-3.3,3.8-4.4,10.9-4.4c25.2,0,55.9,1.1,65.7,1.1c16.4,0,60.2-1.1,75-1.1c30.7,0,65.7,2.7,91.5,19.7c13.7,9.3,34,32.9,34,64.1
	c0,34.5-19.7,65.2-66.8,103c42.7,52.6,76.7,94.7,105.7,123.8c26.8,26.8,43.8,29,51.5,30.7c4.9,1.1,7.7,1.1,11.5,1.1s6,2.7,6,4.9
	c0,3.8-3.3,4.9-9.3,4.9h-46c-26.8,0-40-2.7-52.6-9.3c-20.8-10.4-38.9-32.3-65.7-68.5c-19.2-25.2-39.4-56.4-45.5-63.5
	c-2.7-2.7-5.5-3.3-8.8-3.3l-43.3-1.1c-2.2,0-3.8,1.1-3.8,3.8v6.6c0,43.3,0.5,79.4,2.7,99.1c1.6,13.7,3.8,22.5,18.6,24.6
	c7.1,1.1,17.5,1.6,23.5,1.6c3.8,0,6,2.7,6,4.9c0,3.3-3.8,4.9-9.9,4.9c-27.9,0-67.9-1.6-75-1.6c-9.3,0-40,1.6-59.1,1.6
	c-6,0-9.3-1.6-9.3-4.9c0-2.2,1.6-4.9,7.7-4.9c7.1,0,12.6-0.5,17-1.6c9.9-2.2,12.6-10.9,14.2-24.6c2.2-19.7,2.2-56.4,2.2-99.1
	L2163.7,781.6"/>
</svg>
